<svg width="35" height="18" viewBox="0 0 35 18" fill="none" xmlns="http://www.w3.org/2000/svg">
<path fill-rule="evenodd" clip-rule="evenodd" d="M15.9135 11.279H19.614C20.3071 11.279 20.8688 11.8279 20.8688 12.5048V13.8134C20.8688 14.4902 20.3071 15.039 19.614 15.039H15.9135C15.2204 15.039 14.6586 14.4902 14.6586 13.8134V12.5048C14.6586 11.8279 15.2204 11.279 15.9135 11.279ZM27.9386 15.486C27.9386 14.0979 29.0909 12.9727 30.5119 12.9727C31.9331 12.9727 33.0851 14.0979 33.0851 15.486C33.0851 16.8744 31.9331 17.9996 30.5119 17.9996C29.0909 17.9996 27.9386 16.8744 27.9386 15.486ZM29.1858 15.486C29.1858 16.2017 29.7797 16.7814 30.5119 16.7814C31.244 16.7814 31.8379 16.2017 31.8379 15.486C31.8379 14.7709 31.244 14.191 30.5119 14.191C29.7797 14.191 29.1858 14.7709 29.1858 15.486ZM3.79884 15.486C3.79884 14.0979 4.95077 12.9727 6.37171 12.9727C7.79306 12.9727 8.94541 14.0979 8.94541 15.486C8.94541 16.8744 7.79306 17.9996 6.37171 17.9996C4.95077 17.9996 3.79884 16.8744 3.79884 15.486ZM5.0457 15.486C5.0457 16.2017 5.63987 16.7814 6.37171 16.7814C7.10427 16.7814 7.6981 16.2017 7.6981 15.486C7.6981 14.7709 7.10427 14.191 6.37171 14.191C5.63987 14.191 5.0457 14.7709 5.0457 15.486ZM34.9711 7.59653C34.7908 5.97027 33.4463 1.22526 33.4463 1.22526C33.2385 0.549628 32.8845 -0.000320435 32.1913 -0.000320435H27.3174C26.6243 -0.000320435 26.0625 0.548389 26.0625 1.22526V11.9887H22.1369C21.6835 11.9887 21.3158 12.3477 21.3158 12.7906V13.5274C21.3158 13.9703 21.6835 14.3294 22.1369 14.3294H24.2697H27.3174H27.3371H27.4655H27.5542C28.0645 13.2188 29.2042 12.4439 30.5313 12.4439C31.8584 12.4439 32.9982 13.2188 33.5085 14.3294H33.7161C34.4092 14.3294 34.9711 13.7807 34.9711 13.1036C34.9711 13.1036 35.0362 8.18453 34.9711 7.59653ZM28.8602 8.70968H27.5822C27.3842 8.70968 27.2235 8.55304 27.2235 8.35984C27.2235 8.16612 27.3842 8.00948 27.5822 8.00948H28.8602C29.0582 8.00948 29.2188 8.16612 29.2188 8.35984C29.2188 8.55304 29.0582 8.70968 28.8602 8.70968ZM33.3233 6.38862C33.3233 6.81458 32.9698 7.15952 32.5339 7.15952H28.5098C28.0739 7.15952 27.7206 6.81458 27.7206 6.38862V1.92055C27.7206 1.49484 28.0739 1.14966 28.5098 1.14966H31.5751C32.011 1.14966 32.2337 1.49582 32.3643 1.92055C32.3643 1.92055 33.21 4.90476 33.3233 5.92756C33.3642 6.29729 33.3233 6.38862 33.3233 6.38862ZM13.3234 11.9887H1.446C0.992619 11.9887 0.624817 12.3477 0.624817 12.7906V13.5274C0.624817 13.9703 0.992619 14.3294 1.446 14.3294H3.39646C3.90684 13.2188 5.04661 12.4439 6.37357 12.4439C7.70076 12.4439 8.84053 13.2188 9.35083 14.3294H13.3234C13.7769 14.3294 14.1445 13.9703 14.1445 13.5274V12.7906C14.1445 12.3477 13.7769 11.9887 13.3234 11.9887ZM24.1827 10.6559H1.21138C0.914377 10.6559 0.673571 10.4207 0.673571 10.1307V0.716578C0.673571 0.426379 0.914377 0.191178 1.21138 0.191178H24.1827C24.4797 0.191178 24.7205 0.426379 24.7205 0.716578V10.1307C24.7205 10.4207 24.4797 10.6559 24.1827 10.6559Z" fill="white"/>
</svg>
