<svg width="42" height="17" viewBox="0 0 42 17" fill="none" xmlns="http://www.w3.org/2000/svg">
<path fill-rule="evenodd" clip-rule="evenodd" d="M5.32623 1.5228H5.65217C5.65217 1.5228 4.06218 3.50579 3.29907 5.02845H2.99159C2.99159 5.02845 3.92975 3.16723 5.32623 1.5228ZM14.3225 7.13298C14.3225 7.3446 15.181 7.34977 15.181 7.34977C15.181 7.34977 15.1497 7.7529 15.7321 7.77818C16.3416 7.80446 16.3999 7.37603 16.3999 7.37603C16.3999 7.37603 16.9723 7.39739 16.9617 7.22823C16.9511 7.05883 16.3575 6.99525 16.3575 6.99525C16.3575 6.99525 16.3522 6.6147 15.9017 6.6147C15.3877 6.6147 15.2763 6.94247 15.2763 6.94247C15.2763 6.94247 14.3225 6.92134 14.3225 7.13298ZM40.5772 12.0398C40.6089 11.6379 41.1601 11.6484 41.1601 11.6484C41.1601 11.6484 41.2449 12.0292 41.1601 12.7589C41.0753 13.4885 40.8686 13.5946 40.8686 13.5946C40.4002 13.5763 40.4976 12.7405 40.5548 12.2497L40.5548 12.2495L40.5548 12.2495C40.5643 12.1684 40.5726 12.0968 40.5772 12.0398ZM41.4251 10.5169L41.5363 11.7383L41.0912 13.6894C41.3932 14.2449 41.3297 14.6888 41.3297 14.6888C40.6778 14.9427 38.7063 14.8791 38.7063 14.8791C38.9766 12.9442 38.0862 9.17514 34.7156 9.17514C29.7552 9.17514 30.1049 14.9692 30.1049 14.9692L9.91317 14.5779C9.91317 14.5779 9.99255 9.43833 5.73159 9.18447C1.47059 8.93061 1.39116 13.8482 1.39116 13.8482C1.39116 13.8482 1.10496 13.8642 0.739336 13.8482C-0.437279 12.6108 0.182821 9.81913 0.182821 9.81913L1.12089 9.27974C1.13682 8.38092 1.32758 6.79442 1.32758 6.79442C1.6667 5.31398 2.57565 5.17135 2.57565 5.17135C2.67897 4.99677 2.88575 5.00734 2.88575 5.00734C3.882 3.06142 5.28645 1.50684 5.28645 1.50684L5.22287 1.38014C5.89062 0.745505 6.51063 0.713832 6.51063 0.713832C14.2695 0.0475211 23.3001 0.571199 24.1269 0.713832C24.9536 0.856484 25.5896 1.39071 25.5896 1.39071L30.2639 5.55729H31.6471C31.8167 5.55729 31.8379 5.71049 31.8379 5.71049C36.401 5.91672 38.4758 6.82904 38.4758 6.82904L38.5155 6.96383C40.1849 7.61418 40.5506 8.56579 40.5506 8.56579L40.7732 10.057L41.4251 10.5169ZM1.82838 8.52625L2.48817 6.55922C2.48817 6.55922 2.75052 5.86148 2.36109 5.86148C1.54986 5.86148 1.32075 7.77106 1.25759 8.2975C1.25386 8.32853 1.25072 8.35476 1.24806 8.37551C1.20041 8.74819 1.43886 8.74819 1.43886 8.74819C1.73087 8.79582 1.82838 8.52625 1.82838 8.52625ZM6.86042 1.59154L4.87304 5.06012L14.6192 5.43035L14.5451 1.59154H6.86042ZM14.8895 1.59154L14.969 5.45688L23.7612 5.79775C23.586 5.38077 23.7225 4.84948 24.2222 4.60813C25.208 4.34642 25.6929 5.12371 25.7565 5.27421C25.8201 5.42496 25.7168 5.66286 25.7168 5.66286L25.8672 5.8794L26.8297 5.91672L23.0987 1.59154H14.8895ZM28.2712 5.95918C28.2712 5.95918 28.4302 6.02253 29.1616 5.95918C29.8929 5.89561 30.2428 5.66286 30.2428 5.66286L25.4835 1.42238L24.1163 1.52819L28.2712 5.95918ZM38.8918 9.29028C39.6232 9.76634 39.8669 9.62859 39.8669 9.62859C40.2591 8.69811 38.1604 6.9108 37.7894 7.23879C37.4185 7.56654 38.1604 8.81448 38.8918 9.29028ZM5.59911 9.76634C3.59706 9.76634 1.97414 11.3855 1.97414 13.3827C1.97414 15.3802 3.59706 16.9996 5.59911 16.9996C7.60112 16.9996 9.22413 15.3802 9.22413 13.3827C9.22413 11.3855 7.60112 9.76634 5.59911 9.76634ZM5.59911 16.1111C4.08878 16.1111 2.86451 14.8897 2.86451 13.3827C2.86451 11.876 4.08878 10.6543 5.59911 10.6543C7.1094 10.6543 8.33376 11.876 8.33376 13.3827C8.33376 14.8897 7.1094 16.1111 5.59911 16.1111ZM34.4383 9.76634C32.4363 9.76634 30.8134 11.3855 30.8134 13.3827C30.8134 15.3802 32.4363 16.9996 34.4383 16.9996C36.4404 16.9996 38.0633 15.3802 38.0633 13.3827C38.0633 11.3855 36.4404 9.76634 34.4383 9.76634ZM34.4383 16.1111C32.9281 16.1111 31.7037 14.8897 31.7037 13.3827C31.7037 11.876 32.9281 10.6543 34.4383 10.6543C35.9487 10.6543 37.173 11.876 37.173 13.3827C37.173 14.8897 35.9487 16.1111 34.4383 16.1111Z" fill="white"/>
</svg>
