<svg width="41" height="18" viewBox="0 0 41 18" fill="none" xmlns="http://www.w3.org/2000/svg">
<path fill-rule="evenodd" clip-rule="evenodd" d="M30.5631 -0.000335693C30.8344 0.0578543 31.1094 0.103768 31.3765 0.176434C32.5671 0.49979 33.4893 1.17396 34.1515 2.1754C34.692 2.99294 34.2234 3.96862 33.2241 4.10929C33.0745 4.13065 32.9213 4.1363 32.7699 4.1363C30.4178 4.13802 28.0657 4.13778 25.7136 4.13802C25.6106 4.13802 25.5078 4.13802 25.3763 4.13802C25.3763 8.10352 25.3763 12.0514 25.3763 16.0114C22.3999 16.0114 19.4524 16.0114 16.5012 16.0114C16.5012 15.6552 16.5484 15.3051 16.4927 14.9707C16.2934 13.7716 15.5767 12.946 14.3835 12.5674C13.2061 12.194 12.1411 12.4631 11.2373 13.2782C11.1102 13.3928 10.9964 13.4709 10.8217 13.4449C10.8062 13.4424 10.7896 13.4432 10.7739 13.4451C10.3404 13.5004 10.0091 13.3712 9.6643 13.08C8.7226 12.2853 7.30726 12.1989 6.20671 12.7972C5.06786 13.4161 4.46053 14.6172 4.64917 15.8776C4.65476 15.915 4.66095 15.952 4.66968 16.0073C3.44835 16.0073 2.23695 16.0073 0.995501 16.0073C0.995501 15.9125 0.995501 15.8226 0.995501 15.7328C0.995501 10.5884 0.995587 5.44341 0.994985 0.29871C0.994985 0.199028 0.987933 0.0993463 0.984192 -0.000335693C10.8438 -0.000335693 20.7034 -0.000335693 30.5631 -0.000335693ZM5.88198 2.13463C5.88198 2.13439 5.88198 2.13415 5.88198 2.13391C5.14651 2.13391 4.41112 2.13243 3.67569 2.13439C3.27442 2.13562 3.09412 2.3114 3.09326 2.7003C3.09166 3.346 3.09197 3.99145 3.09373 4.63689C3.0948 5.0037 3.26753 5.17776 3.64809 5.17849C5.12694 5.18194 6.60575 5.18194 8.0847 5.17948C8.4591 5.17899 8.64258 5.00075 8.64533 4.6396C8.65006 3.99414 8.65135 3.3487 8.64722 2.70324C8.64464 2.31043 8.46636 2.13784 8.06289 2.13586C7.33594 2.13195 6.60902 2.13463 5.88198 2.13463ZM13.4182 5.18022C14.1537 5.18022 14.8892 5.18242 15.6247 5.17948C16.0163 5.17776 16.1969 5.0037 16.1985 4.62904C16.2012 3.98334 16.2012 3.33814 16.1987 2.69244C16.1973 2.32271 16.0081 2.1349 15.6272 2.13415C14.1563 2.13144 12.6853 2.13144 11.2144 2.13391C10.8326 2.13463 10.6418 2.32368 10.6406 2.69097C10.6386 3.32857 10.6391 3.96666 10.6404 4.60424C10.6413 5.01131 10.8112 5.178 11.2357 5.17948C11.9633 5.18267 12.6908 5.18047 13.4182 5.18022ZM18.5263 9.59917C18.5257 9.59917 18.5253 9.59917 18.5248 9.59917C18.5248 10.9753 18.5235 12.3514 18.5254 13.7272C18.5263 14.4139 18.9985 14.8649 19.715 14.8661C20.6827 14.8676 21.6504 14.8676 22.618 14.8661C23.3543 14.8649 23.8266 14.4272 23.8278 13.7216C23.8328 10.9775 23.8328 8.23314 23.8294 5.48858C23.8286 4.7842 23.3552 4.33787 22.6245 4.33615C21.6569 4.33393 20.6893 4.33393 19.7216 4.33591C18.9886 4.33762 18.5286 4.78174 18.5271 5.49447C18.5242 6.86245 18.5263 8.23094 18.5263 9.59917ZM29.3046 2.59522C29.8005 2.59522 30.2965 2.60407 30.7918 2.58834C30.8987 2.58491 31.0596 2.51495 31.0915 2.43612C31.1219 2.36198 31.0444 2.20362 30.9646 2.13857C30.5985 1.84126 30.2187 1.55891 29.8347 1.28297C29.7523 1.22355 29.6327 1.18401 29.5299 1.18329C28.5463 1.17592 27.5627 1.17444 26.5792 1.18575C26.4734 1.18722 26.3117 1.26086 26.2799 1.33968C26.2495 1.41506 26.3255 1.57438 26.4054 1.63919C26.7715 1.93628 27.1518 2.21812 27.5361 2.49358C27.6184 2.5525 27.738 2.58834 27.8413 2.59032C28.3289 2.60013 28.8168 2.59474 29.3046 2.59522ZM25.8116 16.0227C25.8116 12.1854 25.8116 8.37531 25.8116 4.53796C25.9103 4.53796 25.9962 4.53796 26.0821 4.53796C28.3221 4.53796 30.5621 4.54262 32.8021 4.53158C33.0683 4.53059 33.2685 4.60596 33.4334 4.78715C33.8862 5.28455 34.3367 5.78393 34.7835 6.28625C35.5786 7.17991 36.3701 8.07701 37.1645 8.97164C37.221 9.03548 37.2844 9.09563 37.3537 9.14621C38.0868 9.67995 38.8197 10.2139 39.5567 10.7423C40.0938 11.1272 40.3752 11.6308 40.3725 12.2799C40.3687 13.1333 40.3736 13.987 40.3705 14.8404C40.3678 15.5573 39.8827 16.0208 39.1371 16.0235C38.6411 16.0254 38.1451 16.0252 37.6492 16.0237C37.2356 16.0227 37.0854 15.8781 37.0818 15.4836C37.0776 15.0083 37.1015 14.5349 36.9521 14.0667C36.6449 13.1031 35.9082 12.6251 34.9412 12.4866C34.3549 12.4027 33.7379 12.4169 33.1467 12.4844C31.9124 12.6254 31.0428 13.617 31.0094 14.8386C31.0024 15.0923 31.0144 15.3461 31.0059 15.5997C30.9975 15.8467 30.8374 16.0191 30.5894 16.02C29.006 16.0254 27.4227 16.0227 25.8116 16.0227ZM29.9318 5.20427C29.9318 5.19765 29.9317 5.19076 29.9317 5.18414C29.316 5.18414 28.7002 5.18095 28.0845 5.18537C27.7052 5.18808 27.5349 5.40117 27.6187 5.75814C27.768 6.395 27.9389 7.0277 28.0657 7.66847C28.2046 8.37088 28.6782 8.77254 29.3782 8.85257C29.7432 8.89407 30.1103 8.91787 30.4763 8.95102C32.1316 9.10054 33.787 9.24884 35.4418 9.40178C35.6474 9.42094 35.8282 9.40621 35.9401 9.21544C36.051 9.02664 35.956 8.88032 35.8294 8.73791C34.9835 7.78533 34.1427 6.82833 33.2934 5.87844C32.9466 5.49053 32.5035 5.23496 31.9692 5.21164C31.2914 5.18168 30.611 5.20427 29.9318 5.20427ZM28.9562 10.5427C28.9562 10.5046 28.9552 10.4661 28.9562 10.4278C28.9759 9.72364 28.923 9.77668 28.2444 9.77987C28.0378 9.78086 27.9363 9.88371 27.9333 10.0777C27.9298 10.2923 27.9367 10.5071 27.9295 10.7214C27.908 11.3561 27.9722 11.3502 28.6331 11.3418C28.6489 11.3416 28.665 11.3398 28.6807 11.3381C28.8582 11.317 28.9532 11.222 28.955 11.0487C28.9569 10.88 28.9555 10.7113 28.9562 10.5427ZM13.4271 12.8245C14.926 12.8279 16.1164 13.9823 16.1122 15.4286C16.1081 16.8504 14.8988 18.0011 13.4113 17.9989C11.9188 17.9967 10.7172 16.8297 10.7262 15.3908C10.7351 13.9612 11.935 12.8213 13.4271 12.8245ZM14.0401 16.0939C13.8622 16.1551 13.7048 16.2039 13.5528 16.2653C13.5104 16.2822 13.4611 16.3318 13.4537 16.3728C13.4096 16.6171 13.3769 16.8634 13.3404 17.1091C13.8494 17.1614 14.42 16.9383 14.6954 16.5764C14.6664 16.5582 14.6316 16.5396 14.6004 16.516C14.4062 16.3706 14.2128 16.2243 14.0401 16.0939ZM12.1315 14.2123C12.2235 14.2867 12.3004 14.34 12.3666 14.4038C12.6233 14.6508 12.8971 14.8025 13.2469 14.5629C13.2982 14.5278 13.3727 14.4873 13.3824 14.4394C13.4308 14.201 13.461 13.9595 13.5014 13.6928C12.9572 13.681 12.5237 13.8475 12.1315 14.2123ZM13.7257 14.5561C13.8694 14.6687 13.9895 14.7679 14.1157 14.859C14.1541 14.8868 14.2189 14.9174 14.2555 14.9044C14.5057 14.817 14.7515 14.7181 15.0005 14.6221C14.7554 14.1544 14.2803 13.8058 13.8566 13.7704C13.8478 13.7979 13.8347 13.8262 13.8302 13.8559C13.7943 14.0903 13.7599 14.3253 13.7257 14.5561ZM11.7002 15.8858C11.8137 15.8435 11.8928 15.8033 11.9769 15.7846C12.3475 15.7019 12.5982 15.5241 12.5731 15.118C12.5698 15.064 12.573 14.9886 12.5394 14.9611C12.3403 14.7979 12.1313 14.6459 11.9119 14.48C11.6283 14.9287 11.5618 15.3802 11.7002 15.8858ZM12.9848 17.0652C13.0016 16.9753 13.008 16.8825 13.0369 16.7971C13.1558 16.444 13.1081 16.1507 12.7325 15.9695C12.6777 15.943 12.6024 15.9096 12.5539 15.926C12.3151 16.0073 12.0823 16.1043 11.847 16.1958C12.053 16.6375 12.4816 16.9643 12.9848 17.0652ZM14.9291 16.3387C15.2055 15.8872 15.2844 15.4379 15.1327 14.9351C14.993 14.9882 14.8849 15.036 14.7722 15.0701C14.5025 15.1522 14.2367 15.231 14.2939 15.5906C14.2994 15.6255 14.2632 15.6658 14.2673 15.7011C14.274 15.7603 14.278 15.8396 14.3174 15.872C14.5096 16.0304 14.7131 16.1762 14.9291 16.3387ZM7.74728 17.9998C6.25745 18.0089 5.03935 16.8469 5.03574 15.4126C5.03208 13.9987 6.22718 12.835 7.69361 12.8247C9.21078 12.8139 10.4164 13.9518 10.4303 15.4075C10.4438 16.8182 9.23047 17.9905 7.74728 17.9998ZM6.95547 15.9145C6.91204 15.7451 6.87971 15.596 6.8331 15.4509C6.81779 15.4031 6.77307 15.3419 6.72852 15.3289C6.48647 15.2575 6.24012 15.1995 5.96583 15.1293C5.88864 15.6498 6.01115 16.0898 6.3447 16.4899C6.56576 16.2818 6.76954 16.0898 6.95547 15.9145ZM7.65904 14.516C7.84321 14.5659 8.00089 14.6128 8.16119 14.6484C8.20531 14.6579 8.27166 14.6488 8.304 14.6219C8.50029 14.4584 8.68979 14.2872 8.90217 14.1004C8.43394 13.7564 7.97307 13.642 7.43621 13.7027C7.51581 13.9933 7.58817 14.2573 7.65904 14.516ZM9.11764 14.3226C9.04192 14.3913 8.98288 14.4517 8.91644 14.5042C8.63768 14.7227 8.40492 14.9548 8.62276 15.3353C8.62972 15.3476 8.62 15.3697 8.62796 15.38C8.65793 15.4195 8.68515 15.4784 8.72574 15.49C8.97441 15.5604 9.2266 15.6201 9.50034 15.6889C9.57465 15.1698 9.45463 14.7318 9.11764 14.3226ZM8.13101 16.1995C8.20866 16.471 8.2852 16.7391 8.36759 17.0269C8.86975 16.8103 9.21022 16.4981 9.40983 16.0144C9.24776 15.9734 9.113 15.9525 8.98937 15.9049C8.72841 15.8047 8.49427 15.763 8.32593 16.0522C8.29389 16.1072 8.21593 16.1374 8.13101 16.1995ZM6.0597 14.7991C6.16651 14.8293 6.25801 14.8512 6.34659 14.8809C6.65559 14.9847 6.96381 15.0972 7.18114 14.7289C7.19816 14.6999 7.25587 14.6948 7.27857 14.6665C7.3036 14.6356 7.33043 14.5858 7.3214 14.5529C7.25359 14.3051 7.17714 14.0596 7.09871 13.7984C6.59427 14.0002 6.25844 14.3199 6.0597 14.7991ZM8.02467 17.1081C7.94662 16.8327 7.91063 16.5577 7.78417 16.3289C7.73059 16.2317 7.48743 16.2314 7.33056 16.1867C7.32308 16.1848 7.31573 16.1757 7.30954 16.1767C7.25428 16.1867 7.18428 16.1813 7.14665 16.2123C6.9544 16.3704 6.7704 16.5376 6.56606 16.717C7.02083 17.0644 7.47956 17.1747 8.02467 17.1081ZM31.3497 15.4374C31.3371 14.0007 32.5343 12.8586 34.0285 12.8161C35.4797 12.7751 36.7533 14.1205 36.7506 15.4095C36.7478 16.8025 35.5461 17.9876 34.0857 17.9989C32.5853 18.0109 31.3623 16.8658 31.3497 15.4374ZM32.7332 16.5796C32.9017 16.4187 33.0599 16.2886 33.189 16.1357C33.2541 16.0583 33.3107 15.9314 33.2922 15.8416C33.2603 15.6861 33.1672 15.5428 33.0934 15.3802C32.8437 15.3412 32.5652 15.2975 32.2637 15.2504C32.2216 15.7679 32.3832 16.1941 32.7332 16.5796ZM35.3713 14.2028C35.1756 14.4154 35.0097 14.5875 34.8558 14.7689C34.8191 14.8126 34.8023 14.8914 34.8122 14.9481C34.8331 15.0657 34.8739 15.1811 34.9153 15.2945C34.9316 15.339 34.9647 15.4028 35.0018 15.4112C35.2694 15.4721 35.5399 15.5211 35.835 15.5791C35.8607 15.0547 35.7082 14.6302 35.3713 14.2028ZM33.6477 13.7329C33.6971 13.8858 33.762 14.0262 33.7858 14.1723C33.8361 14.4817 34.0375 14.5971 34.3338 14.6044C34.4136 14.6064 34.5229 14.6155 34.5691 14.5723C34.7524 14.4009 34.9161 14.2106 35.0893 14.0245C34.6642 13.725 34.2466 13.6396 33.6477 13.7329ZM34.4669 17.0831C34.2745 16.7335 34.3614 16.2361 33.7858 16.2108C33.6932 16.2066 33.5673 16.2044 33.5115 16.256C33.3319 16.4219 33.1779 16.6134 33.0037 16.8064C33.449 17.1057 33.9123 17.1884 34.4669 17.0831ZM35.7647 15.9093C35.4507 15.8492 35.1712 15.7954 34.9184 15.7468C34.7938 15.8794 34.6848 15.9901 34.583 16.1067C34.552 16.1423 34.5136 16.2022 34.5249 16.2368C34.6046 16.4821 34.6965 16.7239 34.7886 16.9783C35.2804 16.747 35.5838 16.403 35.7647 15.9093ZM33.298 13.8478C32.822 14.064 32.5117 14.4095 32.3303 14.9091C32.6078 14.9614 32.8777 15.0795 33.1158 15.0363C33.3016 15.0024 33.4489 14.7692 33.6092 14.6201C33.619 14.6111 33.5938 14.5649 33.5822 14.5372C33.4918 14.3164 33.4008 14.0964 33.298 13.8478ZM23.4026 9.59868C23.4025 10.9593 23.4031 12.3204 23.4022 13.681C23.4019 14.2052 23.14 14.4593 22.5943 14.4603C21.6438 14.4625 20.6932 14.4625 19.7428 14.4606C19.2167 14.4596 18.9493 14.201 18.9491 13.6906C18.948 10.9689 18.9481 8.24713 18.9495 5.52565C18.9498 4.99485 19.2079 4.74689 19.7552 4.74638C20.707 4.74493 21.6588 4.74493 22.6106 4.74638C23.14 4.74713 23.4018 5.00147 23.4023 5.51632C23.4037 6.87695 23.4028 8.23781 23.4026 9.59868ZM21.1548 7.80399C21.5388 7.80399 21.9227 7.80597 22.3065 7.80326C22.6076 7.8013 22.7106 7.70899 22.7145 7.41584C22.7209 6.93145 22.721 6.44705 22.7147 5.96265C22.7111 5.69137 22.5989 5.58973 22.3136 5.5885C21.5538 5.58579 20.794 5.58604 20.0343 5.5885C19.7607 5.58949 19.6458 5.68966 19.6424 5.94448C19.6359 6.4441 19.6361 6.94396 19.643 7.44358C19.6467 7.70824 19.7527 7.80155 20.0271 7.80375C20.4031 7.80645 20.779 7.80449 21.1548 7.80399ZM20.4384 10.5709C20.4864 10.5709 20.5345 10.5709 20.5824 10.5709C21.2713 10.5711 21.293 10.5461 21.2563 9.88052C21.2459 9.69271 21.16 9.59378 20.963 9.59279C20.619 9.59155 20.2749 9.59182 19.9308 9.59279C19.695 9.59353 19.6425 9.7379 19.6386 9.93038C19.6282 10.4373 19.6704 10.5436 19.9103 10.5689C19.9499 10.5731 19.9904 10.5709 20.0304 10.5711C20.1664 10.5711 20.3024 10.5711 20.4384 10.5709Z" fill="white"/>
</svg>
