<svg width="18" height="18" viewBox="0 0 18 18" fill="none" xmlns="http://www.w3.org/2000/svg">
<path fill-rule="evenodd" clip-rule="evenodd" d="M16.256 0.02588H2.30582C1.34672 0.02588 0.56198 0.79902 0.56198 1.74364V15.4854C0.56198 16.43 1.34672 17.2029 2.30582 17.2029H16.256C17.215 17.2029 17.9999 16.43 17.9999 15.4854V1.74364C17.9999 0.79902 17.215 0.02588 16.256 0.02588ZM9.28092 5.17918C11.1991 5.17918 12.7685 6.725 12.7685 8.6145C12.7685 10.504 11.1991 12.0498 9.28092 12.0498C7.36274 12.0498 5.79328 10.504 5.79328 8.6145C5.79328 6.725 7.36274 5.17918 9.28092 5.17918ZM2.74172 15.4854C2.48018 15.4854 2.30582 15.3136 2.30582 15.0559V7.75584H4.13672C4.04954 8.01332 4.04954 8.35678 4.04954 8.6145C4.04954 11.4484 6.40364 13.7673 9.28092 13.7673C12.1581 13.7673 14.5122 11.4484 14.5122 8.6145C14.5122 8.35678 14.5122 8.01332 14.425 7.75584H16.256V15.0559C16.256 15.3136 16.0817 15.4854 15.82 15.4854H2.74172ZM16.256 3.89062C16.256 4.14834 16.0817 4.32054 15.82 4.32054H14.0762C13.8148 4.32054 13.6404 4.14834 13.6404 3.89062V2.17332C13.6404 1.91584 13.8148 1.74364 14.0762 1.74364H15.82C16.0817 1.74364 16.256 1.91584 16.256 2.17332V3.89062Z" fill="#EEBB20"/>
</svg>
