<svg width="329" height="76" viewBox="0 0 329 76" fill="none" xmlns="http://www.w3.org/2000/svg">
<g clip-path="url(#clip0)">
<path d="M41.7354 29.1485H26.2468V75.2368H15.336V29.1485H0V20.7549H41.7354V29.1485Z" fill="#EDBB22"/>
<path d="M41.7354 54.5581C41.7354 48.53 43.414 43.5702 46.7711 39.6786C50.1283 35.787 54.7825 33.8794 60.7338 33.8794C66.7614 33.8794 71.4156 35.787 74.7728 39.6786C78.1299 43.4939 79.8848 48.4537 79.8848 54.5581V55.3212C79.8848 61.4256 78.2062 66.3854 74.849 70.2007C71.4919 74.0159 66.7614 75.9236 60.8101 75.9236C54.7825 75.9236 50.1283 74.0159 46.7711 70.2007C43.414 66.3854 41.7354 61.4256 41.7354 55.3212V54.5581ZM52.6461 55.3212C52.6461 58.9838 53.3328 61.9597 54.6299 64.1726C55.927 66.3854 57.987 67.53 60.8864 67.53C63.7094 67.53 65.7695 66.3854 67.0666 64.1726C68.3637 61.9597 69.0503 58.9838 69.0503 55.3212V54.5581C69.0503 50.9718 68.3637 48.0722 67.0666 45.783C65.7695 43.4939 63.6331 42.3493 60.8101 42.3493C57.987 42.3493 55.927 43.4939 54.6299 45.783C53.3328 48.0722 52.6461 50.9718 52.6461 54.5581V55.3212Z" fill="#EDBB22"/>
<path d="M96.823 34.7189L97.2808 40.0602C98.5779 38.0763 100.18 36.6265 102.164 35.5582C104.148 34.4899 106.36 33.9558 108.955 33.9558C111.549 33.9558 113.761 34.5663 115.593 35.7108C117.424 36.8554 118.873 38.6104 119.789 40.8996C121.01 38.763 122.688 37.008 124.672 35.7871C126.656 34.5663 129.021 33.9558 131.692 33.9558C135.659 33.9558 138.864 35.3293 141.153 38.0763C143.442 40.8233 144.586 45.0201 144.586 50.6667V75.1606H133.675V50.5903C133.675 47.5381 133.141 45.4016 132.149 44.1807C131.157 42.9598 129.631 42.3494 127.724 42.3494C126.198 42.3494 124.825 42.7309 123.68 43.4177C122.536 44.1044 121.62 45.0964 120.933 46.3173C120.933 46.7751 120.933 47.2329 120.933 47.5381C120.933 47.8434 120.933 48.2249 120.933 48.6064V75.3132H110.023V50.5903C110.023 47.6144 109.489 45.4779 108.497 44.257C107.505 43.0361 105.979 42.4257 103.995 42.4257C102.545 42.4257 101.248 42.7309 100.104 43.265C98.9594 43.7992 98.0438 44.6385 97.3571 45.6305V75.2369H86.4464V34.7189H96.823Z" fill="white"/>
<path d="M151.377 54.5581C151.377 48.53 153.055 43.5702 156.412 39.6786C159.769 35.787 164.424 33.8794 170.375 33.8794C176.403 33.8794 181.057 35.787 184.414 39.6786C187.771 43.4939 189.526 48.4537 189.526 54.5581V55.3212C189.526 61.4256 187.847 66.3854 184.49 70.2007C181.133 74.0159 176.403 75.9236 170.451 75.9236C164.424 75.9236 159.769 74.0159 156.412 70.2007C153.055 66.3854 151.377 61.4256 151.377 55.3212V54.5581ZM162.211 55.3212C162.211 58.9838 162.898 61.9597 164.195 64.1726C165.492 66.3854 167.552 67.53 170.451 67.53C173.274 67.53 175.334 66.3854 176.631 64.1726C177.929 61.9597 178.615 58.9838 178.615 55.3212V54.5581C178.615 50.9718 177.929 48.0722 176.631 45.783C175.334 43.4939 173.198 42.3493 170.375 42.3493C167.552 42.3493 165.492 43.4939 164.195 45.783C162.898 48.0722 162.211 50.9718 162.211 54.5581V55.3212Z" fill="white"/>
<path d="M232.623 56.2972C232.623 62.3253 231.25 67.1325 228.58 70.7952C225.909 74.3815 222.018 76.2129 216.906 76.2129C214.541 76.2129 212.481 75.755 210.726 74.7631C208.971 73.7711 207.445 72.3213 206.224 70.4137L205.385 75.4498H196V17H206.911V39.2048C208.055 37.6024 209.505 36.3052 211.107 35.4659C212.709 34.6265 214.617 34.1687 216.753 34.1687C221.865 34.1687 225.833 36.0763 228.503 39.9679C231.174 43.8594 232.547 49.0482 232.547 55.4578V56.2972H232.623ZM221.713 55.5341C221.713 51.5663 221.102 48.4377 219.958 46.0723C218.813 43.7831 216.83 42.5623 214.006 42.5623C212.328 42.5623 210.878 42.9438 209.734 43.6305C208.589 44.3173 207.674 45.3855 206.987 46.6827V63.9277C207.674 65.1486 208.589 66.0643 209.81 66.751C211.031 67.4377 212.481 67.743 214.159 67.743C216.982 67.743 218.966 66.751 220.11 64.7671C221.255 62.7831 221.789 59.9598 221.789 56.2972V55.5341H221.713Z" fill="white"/>
<path d="M251.099 75.2368H240.188V34.7188H251.099V75.2368Z" fill="white"/>
<path d="M271.547 75.2369H260.636V16.7871H271.547V75.2369Z" fill="white"/>
<path d="M298.481 75.9999C292.606 75.9999 287.951 74.0922 284.518 70.3533C281.008 66.6143 279.253 61.8834 279.253 56.0842V54.5581C279.253 48.53 280.932 43.5702 284.213 39.6786C287.493 35.787 291.919 33.8794 297.489 33.8794C302.982 33.8794 307.179 35.5581 310.231 38.8392C313.282 42.1204 314.732 46.6224 314.732 52.1926V58.1445H290.545L290.469 58.3734C290.698 61.0441 291.537 63.2569 293.14 64.9356C294.742 66.6143 296.878 67.53 299.625 67.53C302.067 67.53 304.05 67.3011 305.653 66.7669C307.255 66.3091 309.01 65.5461 310.917 64.4778L313.893 71.269C312.214 72.6424 310.078 73.7107 307.407 74.6264C304.737 75.542 301.761 75.9999 298.481 75.9999ZM297.489 42.3493C295.505 42.3493 293.903 43.1123 292.682 44.6384C291.537 46.1645 290.774 48.2248 290.545 50.7428L290.622 50.8955H304.05V49.9035C304.05 47.6143 303.516 45.7067 302.448 44.3332C301.304 43.036 299.701 42.3493 297.489 42.3493Z" fill="white"/>
<path d="M251.023 16.4819H240.112V30.1406H251.023V16.4819Z" fill="#EDBB22"/>
<path d="M329 0L290.545 17.5502L316.182 19.1526L323.812 41.4337L329 0Z" fill="#EDBB22"/>
</g>
<defs>
<clipPath id="clip0">
<rect width="329" height="76" fill="white"/>
</clipPath>
</defs>
</svg>
