<svg width="146" height="44" viewBox="0 0 146 44" fill="none" xmlns="http://www.w3.org/2000/svg">
<path fill-rule="evenodd" clip-rule="evenodd" d="M15.3182 31.13H7.72052L6.24655 36.0904H0L8.33461 10.5708H11.5106V10.5884L11.5282 10.5708H14.7039L23.0563 36.0904H16.8096L15.3182 31.13ZM9.08918 26.5731H13.9496L11.5633 18.6506H11.4579L9.08918 26.5731ZM35.7777 33.2511C35.2162 34.2792 34.488 35.0711 33.593 35.6258C32.6982 36.1806 31.6657 36.4584 30.4961 36.4584C28.5309 36.4584 26.9895 35.7694 25.8725 34.3905C24.7553 33.0117 24.1968 30.8791 24.1968 27.9927V17.126H30.11V28.0277C30.11 29.5118 30.3001 30.5283 30.6804 31.0778C31.0603 31.6271 31.648 31.9016 32.4437 31.9016C33.0755 31.9016 33.6309 31.8139 34.1107 31.6385C34.5902 31.4633 34.9995 31.2005 35.339 30.8498V17.126H41.2698V36.0904H36.4971L35.7777 33.2511ZM51.3415 17.126V12.4113H45.4107V17.126H42.7612V21.2272H45.4107V29.9557C45.4107 32.2111 45.9165 33.8587 46.9285 34.8986C47.9403 35.9388 49.4228 36.4584 51.3767 36.4584C52.0315 36.4584 52.5988 36.4263 53.0787 36.3622C53.5582 36.2978 54.0964 36.1897 54.693 36.0382L54.2893 31.656C54.0087 31.726 53.7774 31.7729 53.5964 31.7961C53.4147 31.82 53.1721 31.8315 52.8679 31.8315C52.4 31.8315 52.0285 31.6824 51.7539 31.3841C51.4789 31.0865 51.3415 30.5988 51.3415 29.9207V21.2272H54.342V17.126H51.3415ZM56.4299 26.4326C56.4299 23.582 57.2372 21.2595 58.8515 19.4663C60.4656 17.6723 62.7174 16.7755 65.6069 16.7755C68.5079 16.7755 70.7657 17.6723 72.3798 19.4663C73.9942 21.2595 74.8015 23.582 74.8015 26.4326V26.8008C74.8015 29.6637 73.9942 31.9891 72.3798 33.7767C70.7657 35.5648 68.5197 36.4584 65.642 36.4584C62.7293 36.4584 60.4656 35.5648 58.8515 33.7767C57.2372 31.9891 56.4299 29.6637 56.4299 26.8008V26.4326ZM62.3607 26.8008C62.3607 28.3902 62.6091 29.6378 63.1065 30.5434C63.6035 31.4484 64.4488 31.9016 65.642 31.9016C66.8 31.9016 67.6305 31.4459 68.1335 30.5344C68.6365 29.6229 68.8882 28.3783 68.8882 26.8008V26.4326C68.8882 24.8904 68.6365 23.6549 68.1335 22.726C67.6305 21.7969 66.7882 21.3326 65.6069 21.3326C64.437 21.3326 63.6035 21.8 63.1065 22.735C62.6091 23.6697 62.3607 24.9025 62.3607 26.4326V26.8008Z" fill="#EEBB20"/>
<path fill-rule="evenodd" clip-rule="evenodd" d="M87.5357 29.7385C88.068 30.1071 88.3342 30.5254 88.3342 30.9934C88.3342 31.5671 88.1295 32.0087 87.72 32.3186C87.3101 32.6286 86.7078 32.7838 85.9121 32.7838C84.9525 32.7838 84.2123 32.5847 83.6919 32.1869C83.171 31.7893 82.899 31.14 82.8755 30.2385H77.5047L77.4695 30.3438C77.3993 31.9589 78.1159 33.4217 79.6196 34.732C81.1231 36.0427 83.1679 36.6977 85.7542 36.6977C88.2465 36.6977 90.2502 36.1447 91.7656 35.0393C93.2809 33.9335 94.0387 32.5266 94.0387 30.8179C94.0387 29.1561 93.4828 27.872 92.3712 26.965C91.2594 26.0583 89.5394 25.3765 87.211 24.92C85.7366 24.639 84.7564 24.3233 84.2709 23.9724C83.7852 23.6216 83.5425 23.1943 83.5425 22.691C83.5425 22.1642 83.7532 21.7318 84.1744 21.3922C84.5957 21.053 85.1162 20.8832 85.7366 20.8832C86.5905 20.8832 87.205 21.0762 87.5795 21.4621C87.9538 21.8486 88.1413 22.4163 88.1413 23.1654H93.8983L93.9334 23.06C94.0036 21.2693 93.2897 19.8095 91.792 18.6802C90.294 17.551 88.2815 16.9865 85.7542 16.9865C83.3553 16.9865 81.4538 17.5687 80.0497 18.733C78.6456 19.8974 77.9435 21.3162 77.9435 22.9894C77.9435 24.581 78.5052 25.8303 79.6284 26.7371C80.7518 27.644 82.4192 28.314 84.6308 28.747C86.0349 29.0394 87.0031 29.3697 87.5357 29.7385ZM106.088 35.864C106.983 35.3084 107.712 34.5153 108.274 33.4858L108.993 36.3292H113.767V17.3376H107.835V31.0809C107.495 31.4321 107.086 31.6955 106.606 31.8712C106.126 32.0467 105.571 32.1345 104.939 32.1345C104.143 32.1345 103.555 31.8594 103.175 31.3094C102.794 30.7594 102.604 29.7411 102.604 28.2551V17.3376H96.6891V28.2199C96.6891 31.1106 97.2478 33.2462 98.3653 34.6269C99.4826 36.0077 101.025 36.6977 102.99 36.6977C104.16 36.6977 105.193 36.42 106.088 35.864ZM116.225 26.8687C116.225 23.9083 116.871 21.5213 118.164 19.7071C119.457 17.8935 121.28 16.9865 123.631 16.9865C124.626 16.9865 125.504 17.2233 126.264 17.6972C127.025 18.1712 127.68 18.8412 128.23 19.7071L128.616 17.3376H133.847V36.1186C133.847 38.6226 132.989 40.562 131.275 41.9372C129.561 43.3121 127.2 43.9994 124.193 43.9994C123.21 43.9994 122.18 43.8651 121.104 43.5959C120.027 43.3267 118.998 42.9642 118.015 42.5079L119.033 38.1195C119.887 38.4939 120.703 38.7716 121.481 38.9532C122.259 39.1347 123.151 39.2252 124.158 39.2252C125.422 39.2252 126.361 38.9737 126.975 38.4707C127.59 37.9675 127.897 37.1718 127.897 36.0839V34.6091C127.358 35.2994 126.735 35.8204 126.027 36.1713C125.319 36.5225 124.509 36.6977 123.596 36.6977C121.256 36.6977 119.442 35.8322 118.155 34.1C116.868 32.3684 116.225 30.0806 116.225 27.2372V26.8687ZM122.14 27.2372C122.14 28.7816 122.365 29.9843 122.815 30.8443C123.266 31.7039 124.029 32.1345 125.106 32.1345C125.749 32.1345 126.302 32.0349 126.765 31.836C127.227 31.6369 127.604 31.3386 127.897 30.9409V22.9545C127.604 22.4982 127.23 22.1498 126.773 21.9098C126.317 21.6704 125.773 21.5501 125.141 21.5501C124.088 21.5501 123.324 22.039 122.85 23.0158C122.377 23.9929 122.14 25.2773 122.14 26.8687V27.2372Z" fill="#020202"/>
<path fill-rule="evenodd" clip-rule="evenodd" d="M145 1.99957L126.982 10.3698L138.977 11.1344L142.548 21.7139L145 1.99957Z" fill="#EEBB20"/>
</svg>
