<svg width="294" height="86" viewBox="0 0 294 86" fill="none" xmlns="http://www.w3.org/2000/svg">
<path fill-rule="evenodd" clip-rule="evenodd" d="M30.8476 60.2606H15.5474L12.5793 70.1812H0L16.7842 19.1423H23.1799V19.1772L23.2153 19.1423H29.6107L46.4307 70.1812H33.8511L30.8476 60.2606ZM18.3037 51.1467H28.0916L23.286 35.3019H23.0738L18.3037 51.1467ZM72.0489 64.5026C70.9181 66.5589 69.4517 68.1425 67.6494 69.2522C65.8475 70.3619 63.768 70.9173 61.4129 70.9173C57.4554 70.9173 54.3512 69.539 52.1019 66.7813C49.852 64.0238 48.7273 59.7588 48.7273 53.9858V32.2521H60.6353V54.056C60.6353 57.0243 61.0182 59.0571 61.7839 60.156C62.549 61.2544 63.7326 61.8034 65.3348 61.8034C66.6072 61.8034 67.7257 61.6281 68.692 61.2775C69.6574 60.9274 70.4816 60.401 71.1652 59.6998V32.2521H83.1087V70.1812H73.4976L72.0489 64.5026ZM103.391 32.2521V22.823H91.4478V32.2521H86.1122V40.4547H91.4478V57.912C91.4478 62.4226 92.4664 65.7178 94.5043 67.7978C96.5418 69.8778 99.5274 70.9173 103.462 70.9173C104.781 70.9173 105.923 70.853 106.889 70.7248C107.855 70.5956 108.939 70.3796 110.14 70.0766L109.327 61.3123C108.762 61.4528 108.296 61.5466 107.932 61.5932C107.566 61.6403 107.078 61.6634 106.465 61.6634C105.523 61.6634 104.775 61.3649 104.221 60.7688C103.668 60.1737 103.391 59.198 103.391 57.8418V40.4547H109.433V32.2521H103.391ZM113.638 50.8658C113.638 45.1646 115.264 40.5195 118.515 36.9326C121.765 33.3451 126.3 31.5514 132.119 31.5514C137.961 31.5514 142.507 33.3451 145.758 36.9326C149.009 40.5195 150.634 45.1646 150.634 50.8658V51.6019C150.634 57.3282 149.009 61.9786 145.758 65.5538C142.507 69.1299 137.985 70.9173 132.189 70.9173C126.324 70.9173 121.765 69.1299 118.515 65.5538C115.264 61.9786 113.638 57.3282 113.638 51.6019V50.8658ZM125.581 51.6019C125.581 54.7813 126.082 57.2762 127.083 59.0871C128.084 60.8975 129.787 61.8034 132.189 61.8034C134.521 61.8034 136.194 60.8921 137.207 59.0693C138.22 57.2462 138.727 54.7572 138.727 51.6019V50.8658C138.727 47.7812 138.22 45.3104 137.207 43.4524C136.194 41.5943 134.498 40.6653 132.119 40.6653C129.763 40.6653 128.084 41.6007 127.083 43.47C126.082 45.3398 125.581 47.8053 125.581 50.8658V51.6019Z" fill="#EEBB20"/>
<path fill-rule="evenodd" clip-rule="evenodd" d="M176.277 57.4774C177.349 58.2144 177.885 59.0511 177.885 59.987C177.885 61.1345 177.473 62.0174 176.649 62.6376C175.823 63.2577 174.61 63.568 173.008 63.568C171.075 63.568 169.585 63.1698 168.537 62.3739C167.488 61.5789 166.94 60.2802 166.893 58.4771H156.077L156.006 58.6878C155.865 61.9182 157.308 64.8437 160.336 67.4643C163.364 70.0859 167.482 71.3959 172.69 71.3959C177.709 71.3959 181.744 70.2902 184.796 68.0786C187.847 65.867 189.373 63.0535 189.373 59.6359C189.373 56.3127 188.254 53.7446 186.015 51.9303C183.776 50.117 180.312 48.7534 175.623 47.8406C172.654 47.2789 170.68 46.6474 169.703 45.9452C168.725 45.2436 168.236 44.3892 168.236 43.3826C168.236 42.3288 168.66 41.4637 169.508 40.7851C170.357 40.106 171.405 39.7667 172.654 39.7667C174.374 39.7667 175.611 40.1526 176.366 40.925C177.119 41.6974 177.497 42.8331 177.497 44.3307H189.09L189.161 44.1201C189.303 40.5391 187.865 37.6194 184.849 35.3607C181.832 33.1025 177.779 31.9736 172.69 31.9736C167.859 31.9736 164.03 33.1379 161.202 35.4663C158.375 37.7952 156.961 40.6328 156.961 43.9791C156.961 47.1625 158.092 49.6608 160.354 51.4746C162.616 53.288 165.974 54.6285 170.428 55.4942C173.255 56.0789 175.205 56.7399 176.277 57.4774ZM213.638 69.7284C215.441 68.6172 216.908 67.0313 218.039 64.9719L219.488 70.6589H229.102V32.6753H217.155V60.1623C216.472 60.8645 215.647 61.3913 214.681 61.7424C213.715 62.0935 212.596 62.2693 211.323 62.2693C209.72 62.2693 208.536 61.7194 207.771 60.619C207.005 59.5191 206.622 57.4828 206.622 54.5106V32.6753H194.711V54.4404C194.711 60.2218 195.835 64.4926 198.086 67.2542C200.336 70.0157 203.441 71.3959 207.4 71.3959C209.756 71.3959 211.836 70.8401 213.638 69.7284ZM234.051 51.7374C234.051 45.8171 235.353 41.0428 237.957 37.4147C240.56 33.7875 244.231 31.9736 248.967 31.9736C250.969 31.9736 252.737 32.447 254.269 33.3952C255.8 34.3428 257.12 35.6829 258.228 37.4147L259.005 32.6753H269.538V70.2376C269.538 75.2456 267.812 79.1247 264.36 81.8749C260.908 84.6246 256.154 85.9994 250.098 85.9994C248.118 85.9994 246.045 85.7304 243.877 85.1922C241.709 84.6541 239.635 83.9288 237.656 83.016L239.706 74.2395C241.426 74.9883 243.07 75.5436 244.637 75.907C246.204 76.2698 248 76.451 250.027 76.451C252.572 76.451 254.463 75.9477 255.7 74.9421C256.938 73.9355 257.556 72.3441 257.556 70.1679V67.2188C256.472 68.5996 255.217 69.641 253.792 70.3432C252.366 71.0454 250.734 71.3959 248.896 71.3959C244.183 71.3959 240.531 69.6646 237.939 66.2004C235.346 62.7372 234.051 58.1614 234.051 52.4744V51.7374ZM245.962 52.4744C245.962 55.5639 246.416 57.9684 247.323 59.689C248.23 61.4085 249.768 62.2693 251.936 62.2693C253.232 62.2693 254.345 62.0704 255.276 61.6722C256.207 61.2745 256.966 60.6779 257.556 59.8819V43.9094C256.966 42.9966 256.213 42.3004 255.294 41.8202C254.375 41.3409 253.279 41.1008 252.006 41.1008C249.886 41.1008 248.348 42.0784 247.394 44.0317C246.44 45.986 245.962 48.555 245.962 51.7374V52.4744Z" fill="white"/>
<path fill-rule="evenodd" clip-rule="evenodd" d="M292 1.99971L255.716 18.7397L279.872 20.2697L287.063 41.4283L292 1.99971Z" fill="#EEBB20"/>
</svg>
