<svg width="38" height="18" viewBox="0 0 38 18" fill="none" xmlns="http://www.w3.org/2000/svg">
<path fill-rule="evenodd" clip-rule="evenodd" d="M27.544 4.37224C27.3858 4.80655 26.8725 5.73042 25.3008 6.0589C23.9811 6.33412 23.2533 5.58825 22.9042 5.02923L27.544 4.37224ZM12.8828 11.2063C12.8828 10.8928 13.1492 10.6387 13.4777 10.6387C13.8055 10.6387 14.0717 10.8928 14.0717 11.2063C14.0717 11.5193 13.8055 11.7729 13.4777 11.7729C13.1492 11.7729 12.8828 11.5193 12.8828 11.2063ZM16.2384 11.1326C16.0035 11.1326 15.8133 11.3141 15.8133 11.5382C15.8133 11.7629 16.0035 11.9438 16.2384 11.9438C16.474 11.9438 16.6643 11.7629 16.6643 11.5382C16.6643 11.3141 16.474 11.1326 16.2384 11.1326ZM18.0678 11.6556C18.0678 11.4309 18.2579 11.25 18.4926 11.25C18.7279 11.25 18.9181 11.4309 18.9181 11.6556C18.9181 11.88 18.7279 12.0612 18.4926 12.0612C18.2579 12.0612 18.0678 11.88 18.0678 11.6556ZM32.2783 7.02474C34.5322 5.73041 36.8336 4.18073 36.669 3.00081C36.5586 2.20608 35.6014 1.84911 34.3854 1.72342L28.067 4.34351C27.9513 4.77168 27.4348 6.09278 25.4058 6.51702C25.1708 6.56688 24.9512 6.58897 24.746 6.58897C23.4366 6.58897 22.7192 5.68573 22.3917 5.1019H22.3898C21.6824 4.02361 20.8798 3.09754 19.9989 2.55865C19.6226 2.32908 19.2182 2.17172 18.7966 2.07131C18.8644 1.86385 18.9218 1.57734 18.716 1.57734C18.3942 1.57734 17.2446 1.53363 16.6929 1.57734C16.3858 1.60214 16.421 1.8167 16.5116 2.00256C14.3138 2.30405 12.1402 3.46336 11.2445 3.98949C11.2445 3.98949 13.0093 7.18776 16.636 8.83319C20.2619 10.4774 27.885 8.48726 27.9621 8.46688L28.0933 8.91936C27.87 8.97803 24.1157 9.95835 20.5804 9.95835C19.0538 9.95835 17.5681 9.77595 16.425 9.25719C12.6476 7.54376 10.902 4.38648 10.8255 4.24555C10.6084 4.03982 14.3605 -1.51586 10.0344 0.402565C2.13476 4.08008 2.67484 6.59068 3.5782 7.52731C2.89244 7.64712 2.32004 7.87152 2.00096 8.22407C1.52164 8.75462 2.0912 8.93359 3.07988 9.07501C1.54504 9.88668 0.505035 11.4462 0.505035 13.2399C0.505035 15.8671 2.73884 17.9996 5.49236 17.9996C8.24756 17.9996 10.4803 15.8671 10.4803 13.2409C10.4803 13.1674 10.4774 13.0953 10.4739 13.0228C10.8367 13.5581 11.0926 13.9457 11.2639 13.973C11.7411 13.9897 11.9427 13.2347 11.72 12.2166L13.3132 14.4031L16.3462 14.406V14.7544H15.271V15.5762H18.222V14.7544H17.2067V14.4073L24.629 14.4159H25.8228C26.3726 16.4737 28.3235 17.9996 30.6518 17.9996C33.4059 17.9996 35.6394 15.8676 35.6394 13.2409C35.6394 12.0064 35.1428 10.8849 34.3345 10.0389C35.5575 10.7506 36.4525 11.5795 36.7405 11.5255C37.7441 11.2046 36.0882 7.79885 32.2783 7.02474ZM5.49452 16.2329C3.76376 16.2329 2.35916 14.8914 2.35916 13.2399C2.35916 11.591 3.76564 10.2478 5.49452 10.2478C5.84816 10.2478 6.1862 10.3055 6.50384 10.4108L5.7838 11.526C5.70604 11.5159 5.62704 11.5085 5.54612 11.5085C4.5842 11.5085 3.80436 12.2529 3.80436 13.1709C3.80436 14.0889 4.5842 14.833 5.54612 14.833C6.50848 14.833 7.2882 14.0889 7.2882 13.1709C7.2882 12.8154 7.17016 12.4866 6.97052 12.2166L7.68723 11.1056C8.2688 11.6482 8.62932 12.4044 8.62932 13.2399C8.62864 14.889 7.22124 16.2329 5.49452 16.2329ZM13.4777 12.565C12.7081 12.565 12.0842 11.9694 12.0842 11.235C12.0842 10.5014 12.7081 9.90582 13.4777 9.90582C14.2469 9.90582 14.8707 10.5014 14.8707 11.235C14.8707 11.9694 14.2469 12.565 13.4777 12.565ZM15.2602 11.5286C15.2602 11.032 15.6826 10.6291 16.2026 10.6291C16.7238 10.6291 17.1462 11.032 17.1462 11.5286C17.1462 12.0251 16.7238 12.4282 16.2026 12.4282C15.6826 12.4282 15.2602 12.0251 15.2602 11.5286ZM18.4572 12.5456C17.9368 12.5456 17.5147 12.1427 17.5147 11.6463C17.5147 11.1491 17.9368 10.7465 18.4572 10.7465C18.9779 10.7465 19.4002 11.1491 19.4002 11.6463C19.4002 12.1427 18.9779 12.5456 18.4572 12.5456ZM30.6526 16.2329C29.3592 16.2329 28.246 15.4833 27.7686 14.4149H29.553C29.869 14.7208 30.3081 14.9111 30.7936 14.9111C31.756 14.9111 32.5359 14.1672 32.5359 13.2487C32.5359 12.3317 31.756 11.5876 30.7936 11.5876C30.0845 11.5876 29.475 11.9934 29.2032 12.5738H27.597C27.9177 11.2434 29.1632 10.2478 30.653 10.2478C32.382 10.2478 33.7879 11.591 33.7879 13.2399C33.7872 14.8914 32.3834 16.2329 30.6526 16.2329Z" fill="white"/>
</svg>
