<svg width="202" height="86" viewBox="0 0 202 86" fill="none" xmlns="http://www.w3.org/2000/svg">
<path d="M23.4689 0.608008V23.5913H20.7766L6.98659 6.45234V23.5913H3.70325V0.608008H6.39559L20.1856 17.747V0.608008H23.4689ZM42.4982 23.854C40.178 23.854 38.0876 23.3506 36.2271 22.3437C34.3665 21.3149 32.8999 19.9031 31.8274 18.1082C30.7767 16.3133 30.2514 14.3105 30.2514 12.0997C30.2514 9.8889 30.7767 7.88606 31.8274 6.09117C32.8999 4.29629 34.3665 2.8954 36.2271 1.88851C38.0876 0.859731 40.178 0.345343 42.4982 0.345343C44.7965 0.345343 46.876 0.859731 48.7365 1.88851C50.5971 2.8954 52.0527 4.29629 53.1034 6.09117C54.154 7.86417 54.6794 9.86701 54.6794 12.0997C54.6794 14.3323 54.154 16.3461 53.1034 18.141C52.0527 19.914 50.5971 21.3149 48.7365 22.3437C46.876 23.3506 44.7965 23.854 42.4982 23.854ZM42.4982 20.9318C44.1837 20.9318 45.694 20.5488 47.0292 19.7827C48.3863 19.0166 49.4479 17.9659 50.214 16.6307C51.002 15.2736 51.396 13.7632 51.396 12.0997C51.396 10.4361 51.002 8.93673 50.214 7.60151C49.4479 6.2444 48.3863 5.18279 47.0292 4.41667C45.694 3.65056 44.1837 3.26751 42.4982 3.26751C40.8128 3.26751 39.2805 3.65056 37.9016 4.41667C36.5444 5.18279 35.4719 6.2444 34.6839 7.60151C33.9178 8.93673 33.5347 10.4361 33.5347 12.0997C33.5347 13.7632 33.9178 15.2736 34.6839 16.6307C35.4719 17.9659 36.5444 19.0166 37.9016 19.7827C39.2805 20.5488 40.8128 20.9318 42.4982 20.9318ZM70.994 23.854C67.9296 23.854 65.5437 22.9785 63.8364 21.2273C62.129 19.4762 61.2754 16.959 61.2754 13.6757V0.608008H64.5587V13.5443C64.5587 18.4693 66.7148 20.9318 71.0269 20.9318C73.1282 20.9318 74.737 20.3299 75.8534 19.126C76.9697 17.9002 77.5279 16.0397 77.5279 13.5443V0.608008H80.7127V13.6757C80.7127 16.9809 79.859 19.5091 78.1517 21.2602C76.4444 22.9894 74.0585 23.854 70.994 23.854ZM109.181 0.608008L99.1015 23.5913H95.851L85.7383 0.608008H89.2843L97.5583 19.4872L105.898 0.608008H109.181ZM130.566 20.7348V23.5913H113.887V0.608008H130.106V3.46451H117.17V10.5237H128.695V13.3145H117.17V20.7348H130.566ZM137.657 0.608008H140.941V20.7348H153.384V23.5913H137.657V0.608008ZM158.927 0.608008H162.21V20.7348H174.654V23.5913H158.927V0.608008ZM196.875 20.7348V23.5913H180.196V0.608008H196.416V3.46451H183.479V10.5237H195.004V13.3145H183.479V20.7348H196.875ZM38.1837 60.7621C40.9877 61.8023 43.1585 63.3174 44.6962 65.3074C46.2339 67.2973 47.0028 69.6943 47.0028 72.4983C47.0028 76.6592 45.2842 79.8928 41.847 82.1994C38.4098 84.4607 33.4349 85.5913 26.9223 85.5913H0.193597V38.1038H25.5655C31.8972 38.1038 36.6686 39.2344 39.8796 41.4957C43.1359 43.757 44.7641 46.7646 44.7641 50.5184C44.7641 52.7345 44.1987 54.7244 43.0681 56.4882C41.9827 58.2521 40.3545 59.6767 38.1837 60.7621ZM15.9323 49.2973V56.3526H23.3947C26.8771 56.3526 28.6183 55.1767 28.6183 52.8249C28.6183 50.4731 26.8771 49.2973 23.3947 49.2973H15.9323ZM25.5655 74.3978C29.0932 74.3978 30.857 73.1541 30.857 70.6667C30.857 68.1792 29.0932 66.9355 25.5655 66.9355H15.9323V74.3978H25.5655ZM98.7294 85.5913L98.5937 63.9506L88.2821 81.3175H81.2268L70.9153 64.6968V85.5913H56.3298V38.1038H69.4906L84.958 63.4079L100.018 38.1038H113.179L113.315 85.5913H98.7294ZM201.991 38.1038L186.795 85.5913H169.632L161.966 60.2194L153.893 85.5913H136.73L121.534 38.1038H138.019L146.295 65.1038L155.046 38.1038H169.767L178.044 65.443L186.795 38.1038H201.991Z" fill="white"/>
</svg>
