<svg width="121" height="27" viewBox="0 0 121 27" fill="none" xmlns="http://www.w3.org/2000/svg">
<path fill-rule="evenodd" clip-rule="evenodd" d="M1.94532 0.4705H119.176C120.036 0.4705 120.732 1.31322 120.732 2.35276V17.8822C120.732 18.9218 120.036 19.7646 119.176 19.7646H1.94532C1.08585 19.7646 0.389015 18.9218 0.389015 17.8822V2.35276C0.389015 1.31322 1.08585 0.4705 1.94532 0.4705Z" fill="#1D7600"/>
<path fill-rule="evenodd" clip-rule="evenodd" d="M1.35369 22.1176H22.6684C22.8247 22.1176 22.9514 22.3283 22.9514 22.5882V26.4705C22.9514 26.7305 22.8247 26.9411 22.6684 26.9411H1.35369C1.19743 26.9411 1.07073 26.7305 1.07073 26.4705V22.5882C1.07073 22.3283 1.19743 22.1176 1.35369 22.1176Z" fill="#1D7600"/>
<path fill-rule="evenodd" clip-rule="evenodd" d="M25.3698 22.1176H47.6533C47.8167 22.1176 47.9491 22.3283 47.9491 22.5882V26.4705C47.9491 26.7305 47.8167 26.9411 47.6533 26.9411H25.3698C25.2064 26.9411 25.0739 26.7305 25.0739 26.4705V22.5882C25.0739 22.3283 25.2064 22.1176 25.3698 22.1176Z" fill="#1D7600"/>
<path fill-rule="evenodd" clip-rule="evenodd" d="M49.3698 22.1176H71.6533C71.8167 22.1176 71.9491 22.3283 71.9491 22.5882V26.4705C71.9491 26.7305 71.8167 26.9411 71.6533 26.9411H49.3698C49.2064 26.9411 49.0739 26.7305 49.0739 26.4705V22.5882C49.0739 22.3283 49.2064 22.1176 49.3698 22.1176Z" fill="#1D7600"/>
<path fill-rule="evenodd" clip-rule="evenodd" d="M74.3537 22.1176H95.6684C95.8247 22.1176 95.9514 22.3283 95.9514 22.5882V26.4705C95.9514 26.7305 95.8247 26.9411 95.6684 26.9411H74.3537C74.1974 26.9411 74.0707 26.7305 74.0707 26.4705V22.5882C74.0707 22.3283 74.1974 22.1176 74.3537 22.1176Z" fill="#1D7600"/>
<path fill-rule="evenodd" clip-rule="evenodd" d="M99.3537 22.1176H120.668C120.825 22.1176 120.951 22.3283 120.951 22.5882V26.4705C120.951 26.7305 120.825 26.9411 120.668 26.9411H99.3537C99.1974 26.9411 99.0707 26.7305 99.0707 26.4705V22.5882C99.0707 22.3283 99.1974 22.1176 99.3537 22.1176Z" fill="#1D7600"/>
<path d="M21.6016 11.8782H18.6746V14.2717H22.0747V15H17.7839V8.24609H22.0283V8.979H18.6746V11.1499H21.6016V11.8782ZM25.8867 10.8345L27.5056 8.24609H28.554L26.4202 11.5952L28.605 15H27.5474L25.8867 12.3652L24.2168 15H23.1638L25.3533 11.5952L23.2148 8.24609H24.2585L25.8867 10.8345ZM33.957 11.8782H31.03V14.2717H34.4302V15H30.1394V8.24609H34.3838V8.979H31.03V11.1499H33.957V11.8782ZM36.9341 14.2717H40.1348V15H36.0388V8.24609H36.9341V14.2717ZM42.5459 14.2717H45.7466V15H41.6506V8.24609H42.5459V14.2717ZM51.0801 11.8782H48.1531V14.2717H51.5532V15H47.2625V8.24609H51.5068V8.979H48.1531V11.1499H51.0801V11.8782ZM58.3525 15H57.4573L54.0571 9.79541V15H53.1619V8.24609H54.0571L57.4666 13.4739V8.24609H58.3525V15ZM64.9617 8.979H62.7908V15H61.9048V8.979H59.7385V8.24609H64.9617V8.979ZM70.2812 11.8782H67.3542V14.2717H70.7544V15H66.4636V8.24609H70.708V8.979H67.3542V11.1499H70.2812V11.8782ZM80.4148 11.8411C80.4148 12.5028 80.3035 13.0811 80.0808 13.5759C79.8582 14.0676 79.5427 14.4434 79.1345 14.7031C78.7263 14.9629 78.2501 15.0928 77.7058 15.0928C77.1739 15.0928 76.7023 14.9629 76.291 14.7031C75.8797 14.4403 75.5597 14.0676 75.3308 13.5852C75.1051 13.0997 74.9891 12.5384 74.9829 11.9014V11.4143C74.9829 10.7649 75.0958 10.1912 75.3215 9.69336C75.5473 9.19548 75.8658 8.8151 76.2771 8.55225C76.6915 8.2863 77.1646 8.15332 77.6965 8.15332C78.2377 8.15332 78.7139 8.28475 79.1252 8.54761C79.5396 8.80737 79.8582 9.1862 80.0808 9.68408C80.3035 10.1789 80.4148 10.7556 80.4148 11.4143V11.8411ZM79.5288 11.405C79.5288 10.6041 79.368 9.99023 79.0464 9.56348C78.7248 9.13363 78.2748 8.9187 77.6965 8.9187C77.1337 8.9187 76.6899 9.13363 76.3652 9.56348C76.0436 9.99023 75.8782 10.584 75.8689 11.3447V11.8411C75.8689 12.6173 76.0312 13.228 76.356 13.6733C76.6838 14.1156 77.1337 14.3367 77.7058 14.3367C78.281 14.3367 78.7263 14.1279 79.0417 13.7104C79.3572 13.2899 79.5195 12.6884 79.5288 11.906V11.405ZM85.9756 12.0173H83.1414V15H82.2507V8.24609H86.4348V8.979H83.1414V11.2891H85.9756V12.0173ZM91.7266 12.0173H88.8923V15H88.0017V8.24609H92.1858V8.979H88.8923V11.2891H91.7266V12.0173ZM96.2297 12.2678H94.6433V15H93.748V8.24609H95.9839C96.7446 8.24609 97.3291 8.41927 97.7373 8.76562C98.1486 9.11198 98.3542 9.61605 98.3542 10.2778C98.3542 10.6984 98.2398 11.0649 98.011 11.3772C97.7852 11.6895 97.4698 11.923 97.0647 12.0776L98.6511 14.9443V15H97.6956L96.2297 12.2678ZM94.6433 11.5396H96.0117C96.4539 11.5396 96.8049 11.4251 97.0647 11.1963C97.3276 10.9674 97.459 10.6613 97.459 10.2778C97.459 9.86035 97.3337 9.54028 97.0833 9.31763C96.8359 9.09497 96.4771 8.9821 96.0071 8.979H94.6433V11.5396ZM103.924 11.8782H100.997V14.2717H104.397V15H100.107V8.24609H104.351V8.979H100.997V11.1499H103.924V11.8782Z" fill="white"/>
</svg>
