<svg width="131" height="21" viewBox="0 0 131 21" fill="none" xmlns="http://www.w3.org/2000/svg">
<path fill-rule="evenodd" clip-rule="evenodd" d="M11.4914 0L15.2791 6.4187L22.9827 7.80181L17.6201 13.152L18.5935 20.4262L11.4914 17.3126L4.38928 20.4262L5.36248 13.152L0 7.80181L7.70371 6.4187L11.4914 0ZM38.3081 0L42.0958 6.4187L49.7996 7.80181L44.4369 13.152L45.4103 20.4262L38.3081 17.3126L31.2058 20.4262L32.1794 13.152L26.8168 7.80181L34.5204 6.4187L38.3081 0ZM68.9127 6.4187L65.1248 0L61.337 6.4187L53.6334 7.80181L58.9961 13.152L58.0226 20.4262L65.1248 17.3126L72.227 20.4262L71.2535 13.152L76.6163 7.80181L68.9127 6.4187ZM91.9416 0L95.7293 6.4187L103.433 7.80181L98.0703 13.152L99.0438 20.4262L91.9416 17.3126L84.8394 20.4262L85.8128 13.152L80.4502 7.80181L88.1538 6.4187L91.9416 0ZM122.546 6.4187L118.758 0L114.971 6.4187L107.267 7.80181L112.629 13.152L111.656 20.4262L118.758 17.3126L125.861 20.4262L124.887 13.152L130.25 7.80181L122.546 6.4187Z" fill="#EEBB20"/>
</svg>
