<svg width="22" height="18" viewBox="0 0 22 18" fill="none" xmlns="http://www.w3.org/2000/svg">
<path fill-rule="evenodd" clip-rule="evenodd" d="M19.2086 3.46284C20.1499 2.90762 20.7863 2.12288 21.118 1.1093C20.2574 1.6117 19.3384 1.9554 18.3614 2.14064C17.5008 1.24148 16.4429 0.7919 15.1879 0.7919C13.9865 0.7919 12.9625 1.20832 12.1153 2.04162C11.2682 2.87422 10.8446 3.88138 10.8446 5.06242C10.8446 5.37958 10.8803 5.70598 10.9522 6.04068C9.17718 5.9528 7.51189 5.51436 5.95666 4.72534C4.40118 3.93658 3.08115 2.88536 1.99654 1.57192C1.60191 2.23326 1.40494 2.95168 1.40494 3.72694C1.40494 4.45864 1.57971 5.13726 1.92932 5.76308C2.27893 6.38912 2.74964 6.89578 3.34122 7.28354C2.642 7.257 1.9875 7.0765 1.37802 6.74182V6.79416C1.37802 7.82572 1.70749 8.73128 2.36631 9.51128C3.02523 10.2913 3.85664 10.7828 4.86075 10.9853C4.48422 11.0827 4.10314 11.131 3.71778 11.131C3.46674 11.131 3.1934 11.109 2.89746 11.0647C3.17521 11.9198 3.68631 12.623 4.43046 13.1738C5.1745 13.7242 6.01712 14.0087 6.95842 14.0265C5.38062 15.2426 3.5833 15.8511 1.56625 15.8511C1.18066 15.8511 0.831152 15.8336 0.51752 15.7978C2.53448 17.0762 4.75765 17.715 7.18705 17.715C8.72878 17.715 10.1767 17.4751 11.5304 16.9942C12.8839 16.5143 14.0404 15.8707 14.9997 15.0642C15.9589 14.2579 16.7858 13.3303 17.4806 12.2812C18.1753 11.2324 18.6929 10.1373 19.0338 8.99586C19.3744 7.85438 19.5447 6.71054 19.5447 5.56482C19.5447 5.31824 19.5401 5.13324 19.5312 5.00936C20.3828 4.40154 21.1089 3.66536 21.7097 2.8015C20.876 3.1542 20.0422 3.37472 19.2086 3.46284Z" fill="#EEBB20"/>
</svg>
