<svg width="161" height="141" viewBox="0 0 161 141" fill="none" xmlns="http://www.w3.org/2000/svg">
<path fill-rule="evenodd" clip-rule="evenodd" d="M118.883 107.034C118.434 107.262 117.938 107.423 117.394 107.423H3.35412C2.78388 107.423 2.27403 107.249 1.80444 106.994C1.70226 106.94 1.61728 106.877 1.52532 106.81C1.50263 106.793 1.47953 106.776 1.45563 106.759C1.11358 106.517 0.831765 106.222 0.59697 105.872C0.57453 105.837 0.541456 105.81 0.507897 105.782C0.471132 105.751 0.433784 105.72 0.4092 105.678C0.394666 105.652 0.391937 105.627 0.389323 105.603C0.387099 105.582 0.384957 105.562 0.375705 105.544C0.154275 105.094 0 104.603 0 104.066V3.35681C0 1.50396 1.50266 -0.00012207 3.35412 -0.00012207H117.394C119.246 -0.00012207 120.748 1.50396 120.748 3.35681V104.066C120.748 104.08 120.745 104.093 120.742 104.107C120.738 104.12 120.735 104.133 120.735 104.147C120.731 104.209 120.716 104.264 120.701 104.32C120.687 104.368 120.674 104.417 120.668 104.469C120.614 104.892 120.5 105.282 120.306 105.637C120.289 105.668 120.282 105.699 120.276 105.731C120.272 105.746 120.269 105.761 120.265 105.776C120.26 105.793 120.254 105.809 120.245 105.825C120.22 105.869 120.181 105.899 120.142 105.928C120.109 105.954 120.076 105.979 120.051 106.014C119.823 106.329 119.554 106.584 119.232 106.799C119.21 106.814 119.189 106.829 119.167 106.844C119.149 106.857 119.13 106.871 119.112 106.884L119.111 106.885L119.111 106.885L119.111 106.885C119.038 106.938 118.966 106.99 118.883 107.034ZM114.04 89.8462V6.71388H6.70824V92.6393L30.7238 55.2558C31.2672 54.4031 32.1795 53.8393 33.1856 53.7319C34.1784 53.6243 35.1981 53.9802 35.9093 54.6919L52.928 71.7387L77.5809 28.5544C78.1981 27.4803 79.3183 26.802 80.5862 26.8625C81.8271 26.8961 82.9407 27.6078 83.4976 28.7156L114.04 89.8462ZM53.6659 30.2127C53.6659 20.9427 46.1574 13.4279 36.8953 13.4279C27.6332 13.4279 20.1247 20.9427 20.1247 30.2127C20.1247 39.4828 27.6332 46.9977 36.8953 46.9977C46.1574 46.9977 53.6659 39.4828 53.6659 30.2127ZM121.768 113.083C120.333 113.781 118.863 114.137 117.394 114.137H74.4615C72.932 114.137 71.5971 115.171 71.2147 116.655C70.8324 118.139 71.4965 119.69 72.8315 120.435L109.056 140.577C109.573 140.866 110.129 141 110.679 141C111.833 141 112.953 140.402 113.584 139.335L126.135 117.796C126.88 116.521 126.699 114.903 125.699 113.822C124.686 112.741 123.096 112.439 121.768 113.083ZM132.669 36.3694L159.502 54.2755C160.984 55.2558 161.434 57.223 160.542 58.7539L133.709 104.792C133.098 105.839 131.985 106.457 130.811 106.457C130.522 106.457 130.227 106.423 129.939 106.342C128.47 105.946 127.457 104.617 127.457 103.1V39.1626C127.457 37.9272 128.141 36.7858 129.228 36.2016C130.308 35.6242 131.636 35.6845 132.669 36.3694Z" fill="#EEBB20"/>
</svg>
