<svg width="49" height="54" viewBox="0 0 49 54" fill="none" xmlns="http://www.w3.org/2000/svg">
<path fill-rule="evenodd" clip-rule="evenodd" d="M29.4337 30.4199L29.1628 30.1502C29.1345 30.117 29.1035 30.0862 29.0701 30.0579L14.6453 15.6976C11.3687 12.4758 11.3687 7.23335 14.6452 4.01141C17.9218 0.789586 23.2535 0.78967 26.53 4.01132L29.2346 6.67068C29.3869 6.82041 29.5933 6.90449 29.8086 6.90449C30.0239 6.90449 30.2303 6.82041 30.3827 6.67068L33.0286 4.06886C36.3055 0.846958 41.6371 0.847042 44.9134 4.06886C48.19 7.29072 48.19 12.5332 44.9134 15.7551L35.7546 24.7607C35.4376 25.0723 35.4376 25.5777 35.7546 25.8894C36.0716 26.2011 36.5855 26.2011 36.9027 25.8894L46.0614 16.8838C49.9709 13.0395 49.9709 6.78441 46.0614 2.94011C42.1518 -0.904106 35.7905 -0.90419 31.8806 2.94003L29.8086 4.97749L27.6779 2.88257C23.7685 -0.961646 17.4069 -0.961562 13.4973 2.88266C9.58765 6.72704 9.58765 12.9821 13.4939 16.8229L26.4301 29.7014L9.33489 28.395C5.38162 28.0929 2.41537 24.6846 2.72256 20.7975C2.96678 17.7086 5.19034 15.1608 8.25576 14.4576C8.69237 14.3575 8.96373 13.9283 8.86181 13.499C8.76 13.0697 8.32386 12.8026 7.88688 12.9031C4.12912 13.765 1.40333 16.8878 1.10394 20.6738C0.727372 25.4385 4.36338 29.6162 9.20917 29.9865L25.7022 31.2469L11.212 36.2828C9.40114 36.9121 7.4491 36.8104 5.716 35.9963C3.98269 35.1821 2.67565 33.753 2.03562 31.9723C1.62556 30.8313 1.51882 29.6023 1.72701 28.4183C1.80343 27.9838 1.50721 27.5708 1.06551 27.4957C0.623386 27.42 0.203732 27.7118 0.127359 28.1462C-0.128207 29.5991 0.00243813 31.1062 0.504984 32.5042C1.28949 34.687 2.89168 36.4387 5.01619 37.4367C6.22119 38.0027 7.51222 38.2878 8.80934 38.2878C9.79906 38.2878 10.7923 38.1218 11.7531 37.7878L29.1225 31.7513C29.1849 31.7312 29.2452 31.7034 29.3022 31.6679C29.3744 31.6232 29.4378 31.5681 29.4909 31.5055C29.5849 31.3955 29.6439 31.2664 29.6679 31.1324C29.7017 30.9441 29.6664 30.7462 29.562 30.5779C29.5258 30.5192 29.4825 30.4663 29.4337 30.4199Z" fill="#EEBB20"/>
<path fill-rule="evenodd" clip-rule="evenodd" d="M26.6247 40.9545C26.5804 40.9545 26.5355 40.951 26.4903 40.9436C26.0479 40.8711 25.7491 40.4597 25.8229 40.0249C26.1789 37.9247 27.8526 36.8801 29.1576 36.4691L27.0311 28.0415C26.4321 26.1842 27.4707 24.1886 29.3582 23.5825C31.2552 22.9733 33.3035 23.9953 33.9233 25.861L37.9856 38.0765C38.125 38.4957 37.8925 38.9465 37.4662 39.0835C37.0394 39.221 36.5814 38.9917 36.442 38.5728L32.3796 26.3569C32.0377 25.328 30.9087 24.7641 29.8623 25.1003C28.816 25.4363 28.2427 26.5464 28.5845 27.5752C28.5905 27.5935 28.5959 27.6121 28.6006 27.6307L30.9326 36.8724C30.9887 37.0948 30.945 37.3301 30.8125 37.5185C30.68 37.7071 30.4715 37.8305 30.2402 37.8574C30.1433 37.8697 27.7802 38.1905 27.4246 40.2874C27.3584 40.6779 27.0145 40.9545 26.6247 40.9545ZM41.6873 54C41.2388 54 40.8752 53.6425 40.8752 53.2016V48.2096C40.8752 47.5229 40.9975 46.848 41.2387 46.2035L43.5984 39.8959C43.7964 39.3664 43.8713 38.7897 43.8149 38.2281L43.3152 33.2539C43.2325 32.4286 42.8676 31.6423 42.2882 31.0398L38.1206 26.7062C37.8124 26.3858 37.8269 25.8805 38.1527 25.5776C38.4785 25.2748 38.9925 25.289 39.3004 25.6093L43.4681 29.9429C44.2936 30.8012 44.8132 31.9214 44.9314 33.0969L45.4311 38.0712C45.5114 38.8712 45.4046 39.6927 45.1224 40.4471L42.7627 46.7546C42.5879 47.2221 42.4992 47.7115 42.4992 48.2096V53.2016C42.4992 53.6425 42.1358 54 41.6873 54ZM27.4791 53.2016C27.4791 53.6425 27.8427 54 28.2912 54C28.7397 54 29.1031 53.6425 29.1031 53.2016V49.532C29.1031 48.3452 28.6493 47.214 27.8253 46.3468L25.4181 43.8134C24.8003 43.163 24.3674 42.3607 24.1662 41.4931L23.3265 37.8708C23.2268 37.4411 22.7918 37.1719 22.3543 37.27C21.9171 37.3679 21.6435 37.7958 21.7431 38.2258L22.5829 41.848C22.8478 42.9905 23.4179 44.047 24.2315 44.9033L26.6387 47.4367C27.1807 48.0073 27.4791 48.7514 27.4791 49.532V53.2016Z" fill="#323030"/>
</svg>
