<svg width="68" height="68" viewBox="0 0 68 68" fill="none" xmlns="http://www.w3.org/2000/svg">
<path fill-rule="evenodd" clip-rule="evenodd" d="M65.9319 55.9486L51.6461 41.6658C51.2696 41.3048 50.5906 41.3048 50.2142 41.6658L49.1432 42.7211L45.1653 38.7439C51.5536 29.3423 50.6061 16.4171 42.2735 8.07088C32.8392 -1.36152 17.4981 -1.36152 8.06688 8.07088C-1.36735 17.5001 -1.36735 32.8383 8.06688 42.2706C12.7825 46.9697 18.9764 49.3518 25.1702 49.3518C29.9167 49.3518 34.6632 47.9356 38.7462 45.1617L42.7241 49.1389L41.6532 50.225C41.2613 50.6169 41.2613 51.2494 41.6532 51.6413L55.9543 65.9518C57.3277 67.3094 59.1331 68.0006 60.9416 68.0006C62.75 68.0006 64.5584 67.3094 65.9319 65.9518C68.6878 63.1811 68.6878 58.7225 65.9319 55.9486ZM9.49578 40.8235C0.863826 32.2056 0.863826 18.1326 9.49578 9.5149C13.8226 5.20746 19.4887 3.03834 25.1702 3.03834C30.8363 3.03834 36.5148 5.20746 40.8261 9.5149C49.4766 18.1326 49.4766 32.2056 40.8261 40.8235C32.1912 49.4721 18.1462 49.4721 9.49578 40.8235ZM42.2735 42.2706C42.8599 41.6658 43.4339 41.0333 43.9462 40.4008L47.7113 44.1681L44.1561 47.7226L40.4034 43.9553C41.0515 43.4431 41.6686 42.8722 42.2735 42.2706ZM50.9364 43.8072L54.4792 47.3925L47.3657 54.4738L43.8259 50.9161L50.9364 43.8072ZM64.4999 64.5078C62.5401 66.464 59.346 66.464 57.3863 64.5078L48.7977 55.9178L55.9112 48.8088L64.4999 57.3957C65.4473 58.3306 65.975 59.5957 65.975 60.9502C65.975 62.3078 65.4473 63.542 64.4999 64.5078Z" fill="#323030"/>
<path fill-rule="evenodd" clip-rule="evenodd" d="M37.4838 12.8408C30.7233 5.93668 19.7126 5.93668 12.9522 12.8408C6.19172 19.779 6.19172 31.0345 12.9522 37.9726C16.3424 41.457 20.7851 43.1839 25.2279 43.1839C29.6707 43.1839 34.1101 41.457 37.4838 37.9726C44.2608 31.0345 44.2608 19.779 37.4838 12.8408ZM35.943 36.4123C30.026 42.453 20.4099 42.453 14.4929 36.4123C8.5924 30.3376 8.5924 20.4759 14.4929 14.4351C17.4614 11.4131 21.3363 9.88674 25.2279 9.88674C29.1029 9.88674 32.9911 11.4131 35.943 14.4351C41.8602 20.4759 41.8602 30.3376 35.943 36.4123Z" fill="#EEBB20"/>
<path fill-rule="evenodd" clip-rule="evenodd" d="M20.1574 32.6746L14.3215 27.2434C13.8924 26.844 13.8924 26.1967 14.3215 25.7975C14.7505 25.3982 15.4461 25.3981 15.8751 25.7975L20.9342 30.5058L34.0959 18.2565C34.5249 17.8572 35.2205 17.8572 35.6494 18.2565C36.0785 18.6559 36.0786 19.3032 35.6494 19.7024L21.711 32.6746C21.2824 33.0737 20.5863 33.0739 20.1574 32.6746Z" fill="#EEBB20"/>
</svg>
