<svg width="52" height="53" viewBox="0 0 52 53" fill="none" xmlns="http://www.w3.org/2000/svg">
<path fill-rule="evenodd" clip-rule="evenodd" d="M49.4736 17.7688C49.611 17.8614 49.7667 17.9056 49.9207 17.9056C50.1803 17.9056 50.4354 17.7795 50.5906 17.5465L51.4352 16.2787C52.4622 14.7368 52.0489 12.6431 50.5139 11.6115C48.9791 10.5799 46.8947 10.9949 45.8675 12.5367L45.023 13.8045C44.7757 14.1758 44.8748 14.6781 45.2445 14.9265C45.6141 15.175 46.1144 15.0753 46.3615 14.7041L47.206 13.4364C47.7393 12.6358 48.8215 12.4203 49.6183 12.956C50.4153 13.4916 50.6297 14.5786 50.0966 15.379L49.2521 16.6467C49.0048 17.018 49.1039 17.5204 49.4736 17.7688ZM30.3888 41.8238C30.524 41.9147 30.6802 41.9604 30.8366 41.9604C30.9807 41.9604 31.125 41.9217 31.2533 41.8436L36.3961 38.7186C36.497 38.6574 36.5832 38.5747 36.6486 38.4764L49.4924 19.1951C49.7397 18.8238 49.6405 18.3214 49.271 18.073L47.4464 16.8467C47.2689 16.7275 47.0514 16.6837 46.842 16.7257C46.6325 16.7674 46.448 16.8909 46.3293 17.0692L41.7696 23.9143C41.5223 24.2856 41.6215 24.788 41.9911 25.0365C42.3608 25.285 42.8609 25.1853 43.1082 24.814L47.2201 18.6411L47.706 18.9677L35.4095 37.4275L31.8944 39.5633L32.5191 35.4848L45.2634 16.3528C45.5107 15.9816 45.4115 15.4792 45.0418 15.2307C44.6723 14.9823 44.1721 15.082 43.9248 15.4532L31.081 34.7345C31.0155 34.8329 30.9723 34.9444 30.9544 35.0614L30.0406 41.0285C29.9931 41.339 30.1288 41.6491 30.3888 41.8238Z" fill="#EEBB20"/>
<path fill-rule="evenodd" clip-rule="evenodd" d="M38.0259 53H0.805363C0.360595 53 0 52.6377 0 52.1907V0.809239C0 0.362254 0.360595 -3.05176e-05 0.805363 -3.05176e-05H38.0259C38.4707 -3.05176e-05 38.8313 0.362254 38.8313 0.809239V19.1888C38.8313 19.6357 38.4707 19.998 38.0259 19.998C37.5812 19.998 37.2207 19.6357 37.2207 19.1888V1.61856H1.61064V51.3814H37.2207V40.5103C37.2207 40.0634 37.5812 39.701 38.0259 39.701C38.4707 39.701 38.8313 40.0634 38.8313 40.5103V52.1907C38.8313 52.6377 38.4707 53 38.0259 53ZM12.2842 16.3008H5.83319C5.38842 16.3008 5.02791 15.9385 5.02791 15.4914V9.00853C5.02791 8.56149 5.38842 8.1992 5.83319 8.1992H11.9476L12.4338 7.6481C12.7288 7.31365 13.2378 7.2829 13.5706 7.57941C13.9034 7.87591 13.934 8.38741 13.6389 8.72192L9.59396 13.3067C9.44665 13.4736 9.23738 13.572 9.01553 13.5788L9.01071 13.5789L8.99138 13.5791C8.7781 13.5791 8.57326 13.494 8.42197 13.3421L7.58574 12.5017C7.27123 12.1857 7.27123 11.6732 7.58574 11.3571C7.90017 11.0412 8.41008 11.0412 8.72464 11.3571L8.9562 11.59L10.5196 9.81785H6.63856V14.6822H11.4789V13.2113C11.4789 12.7644 11.8394 12.4021 12.2842 12.4021C12.729 12.4021 13.0895 12.7644 13.0895 13.2113V15.4914C13.0895 15.9385 12.729 16.3008 12.2842 16.3008ZM12.2842 30.1012H5.83319C5.38842 30.1012 5.02791 29.739 5.02791 29.292V22.809C5.02791 22.362 5.38842 21.9998 5.83319 21.9998H11.9476L12.4338 21.4487C12.7288 21.1141 13.2378 21.0834 13.5706 21.3799C13.9034 21.6765 13.934 22.188 13.6389 22.5225L9.59396 27.1071C9.44665 27.274 9.23738 27.3724 9.01553 27.3792C9.0075 27.3794 8.99942 27.3795 8.99138 27.3795C8.77818 27.3795 8.57326 27.2944 8.42197 27.1425L7.58574 26.3022C7.27123 25.9862 7.27123 25.4738 7.58566 25.1578C7.90008 24.8417 8.41008 24.8418 8.72451 25.1576L8.95608 25.3903L10.5195 23.6183H6.63856V28.4827H11.4789V27.0118C11.4789 26.5649 11.8394 26.2026 12.2842 26.2026C12.729 26.2026 13.0895 26.5649 13.0895 27.0118V29.292C13.0895 29.739 12.729 30.1012 12.2842 30.1012ZM33.0522 9.81785H18.4363C17.9916 9.81785 17.631 9.45557 17.631 9.00853C17.631 8.56149 17.9916 8.1992 18.4363 8.1992H33.0522C33.497 8.1992 33.8575 8.56149 33.8575 9.00853C33.8575 9.45557 33.497 9.81785 33.0522 9.81785ZM18.4363 14.457H26.34C26.7848 14.457 27.1454 14.0948 27.1454 13.6478C27.1454 13.2008 26.7848 12.8385 26.34 12.8385H18.4363C17.9916 12.8385 17.631 13.2008 17.631 13.6478C17.631 14.0948 17.9916 14.457 18.4363 14.457ZM33.0522 23.6183H18.4363C17.9916 23.6183 17.631 23.2561 17.631 22.809C17.631 22.362 17.9916 21.9998 18.4363 21.9998H33.0522C33.497 21.9998 33.8575 22.362 33.8575 22.809C33.8575 23.2561 33.497 23.6183 33.0522 23.6183ZM18.4363 28.2576H26.34C26.7848 28.2576 27.1454 27.8953 27.1454 27.4483C27.1454 27.0013 26.7848 26.6391 26.34 26.6391H18.4363C17.9916 26.6391 17.631 27.0013 17.631 27.4483C17.631 27.8953 17.9916 28.2576 18.4363 28.2576ZM12.2842 43.5807H5.83319C5.38842 43.5807 5.02791 43.2185 5.02791 42.7715V36.2886C5.02791 35.8415 5.38842 35.4793 5.83319 35.4793H11.9476L12.4338 34.9282C12.7288 34.5936 13.2378 34.563 13.5706 34.8595C13.9034 35.156 13.934 35.6675 13.6389 36.0019L9.59396 40.5867C9.44665 40.7535 9.23738 40.8519 9.01553 40.8587L9.00425 40.8589L8.99138 40.859C8.77818 40.859 8.57326 40.774 8.42197 40.622L7.58574 39.7818C7.27123 39.4658 7.27123 38.9533 7.58566 38.6372C7.90008 38.3212 8.41008 38.3213 8.72451 38.6371L8.95608 38.8698L10.5195 37.0979H6.63856V41.9622H11.4789V40.4914C11.4789 40.0443 11.8394 39.6821 12.2842 39.6821C12.729 39.6821 13.0895 40.0443 13.0895 40.4914V42.7715C13.0895 43.2185 12.729 43.5807 12.2842 43.5807ZM26.8887 37.0979H18.4363C17.9916 37.0979 17.631 36.7356 17.631 36.2886C17.631 35.8415 17.9916 35.4793 18.4363 35.4793H26.8887C27.3335 35.4793 27.694 35.8415 27.694 36.2886C27.694 36.7356 27.3335 37.0979 26.8887 37.0979ZM18.4363 41.7371H22.6625C23.1073 41.7371 23.4678 41.3748 23.4678 40.9278C23.4678 40.4809 23.1073 40.1186 22.6625 40.1186H18.4363C17.9916 40.1186 17.631 40.4809 17.631 40.9278C17.631 41.3748 17.9916 41.7371 18.4363 41.7371Z" fill="#323030"/>
</svg>
