<svg width="21" height="25" viewBox="0 0 21 25" fill="none" xmlns="http://www.w3.org/2000/svg">
<path fill-rule="evenodd" clip-rule="evenodd" d="M10.5385 12.0012C12.1734 12.0012 13.5888 11.4102 14.7456 10.2429C15.902 9.07599 16.4885 7.64913 16.4885 6.00044C16.4885 4.35177 15.9023 2.92416 14.7453 1.75693C13.5887 0.590755 12.1732 -0.00063324 10.5385 -0.00063324C8.90365 -0.00063324 7.48839 0.590755 6.33184 1.75729C5.17528 2.92416 4.58871 4.35141 4.58871 6.00044C4.58871 7.64913 5.17528 9.07635 6.33184 10.2429C7.48881 11.4098 8.90404 12.0012 10.5385 12.0012ZM20.9494 19.1581C20.916 18.6726 20.8484 18.143 20.7491 17.5834C20.6489 17.0205 20.5197 16.4873 20.3655 16.0007C20.2056 15.4974 19.9886 15.0008 19.72 14.5246C19.4417 14.0306 19.1145 13.6002 18.7474 13.2462C18.3634 12.8755 17.8933 12.5774 17.35 12.36C16.8083 12.1441 16.2079 12.0345 15.5658 12.0345C15.3135 12.0345 15.0697 12.1389 14.5989 12.4482C14.3089 12.6389 13.9699 12.8592 13.5914 13.1036C13.2678 13.3114 12.8295 13.5062 12.288 13.6824C11.7597 13.8546 11.2232 13.9424 10.6938 13.9424C10.1646 13.9424 9.62813 13.8546 9.09963 13.6824C8.55856 13.5065 8.12011 13.3114 7.79703 13.1036C7.42197 12.8618 7.08276 12.6415 6.78878 12.4482C6.31808 12.1389 6.07414 12.0345 5.82202 12.0345C5.17972 12.0345 4.57967 12.1441 4.03818 12.36C3.49506 12.5774 3.02494 12.8755 2.64045 13.2462C2.27333 13.6002 1.94613 14.0309 1.66799 14.5246C1.39985 15.0008 1.18273 15.4974 1.02291 16.001C0.8686 16.4876 0.739547 17.0205 0.639198 17.5834C0.539631 18.1419 0.47231 18.6718 0.43919 19.1584C0.406254 19.6343 0.389648 20.1294 0.389648 20.6297C0.389648 21.9307 0.799508 22.9835 1.60794 23.7597C2.40631 24.5263 3.46243 24.9151 4.74725 24.9151H16.6419C17.9262 24.9151 18.9823 24.5263 19.781 23.7597C20.5893 22.9839 20.9992 21.9307 20.9992 20.6293C20.9992 20.1276 20.9824 19.6328 20.9494 19.1581Z" fill="black"/>
</svg>
